<svg xmlns="http://www.w3.org/2000/svg" viewBox="0 0 400 310" width="400" height="310"><g transform="translate(125.0 0)"><svg xmlns="http://www.w3.org/2000/svg" viewBox="0 0 100 100" width="150" height="150"><defs><clipPath id="c"><rect width="100" height="100"/></clipPath></defs><g clip-path="url(#c)"><g><path d="M-6 46 h16 a6 6 0 0 1 6 6 v3.5 a4.5 4.5 0 0 0 0 9.0 v3.5 a6 6 0 0 1 -6 6 h-16 z" fill="#0D0E11"/><path d="M106 26 h-16 a6 6 0 0 0 -6 6 v3.5 a4.5 4.5 0 0 1 0 9.0 v3.5 a6 6 0 0 0 6 6 h16 z" fill="#0D0E11"/><path d="M23 60 C23 14 56 12 58 40 C60 54 70 40 77 40" fill="none" stroke="#1A73C5" stroke-width="6" stroke-linecap="round"/><circle cx="16.0" cy="60.0" r="7.0" fill="none" stroke="#1A73C5" stroke-width="5.0"/><circle cx="84.0" cy="40.0" r="7.0" fill="none" stroke="#1A73C5" stroke-width="5.0"/></g></g></svg></g><path transform="translate(8.0 238)" d="M9.6 -48h32v9.6h-32zM182.4 -48h9.6v48h-9.6zM204.8 -48h32v9.6h-32zM348.8 -48h9.6v48h-9.6zM0 -38.4h9.6v28.8h-9.6zM35.2 -38.4h9.6v6.4h-9.6zM48 -38.4h25.6v6.4h-25.6zM195.2 -38.4h9.6v28.8h-9.6zM230.4 -38.4h9.6v6.4h-9.6zM272 -38.4h25.6v6.4h-25.6zM86.4 -35.2h25.6v9.6h-25.6zM121.6 -35.2h12.8v9.6h-12.8zM156.8 -35.2h22.4v9.6h-22.4zM243.2 -35.2h25.6v9.6h-25.6zM310.4 -35.2h25.6v9.6h-25.6zM358.4 -35.2h16v9.6h-16zM73.6 -32h9.6v32h-9.6zM297.6 -32h9.6v32h-9.6zM86.4 -25.6h9.6v25.6h-9.6zM112 -25.6h9.6v25.6h-9.6zM134.4 -25.6h9.6v25.6h-9.6zM147.2 -25.6h9.6v16h-9.6zM169.6 -25.6h9.6v3.2h-9.6zM217.6 -25.6h22.4v9.6h-22.4zM243.2 -25.6h9.6v25.6h-9.6zM310.4 -25.6h9.6v38.4h-9.6zM336 -25.6h9.6v16h-9.6zM374.4 -25.6h9.6v25.6h-9.6zM57.6 -22.4h16v3.2h-16zM156.8 -22.4h12.8v3.2h-12.8zM281.6 -22.4h16v3.2h-16zM35.2 -19.2h9.6v9.6h-9.6zM48 -19.2h9.6v9.6h-9.6zM272 -19.2h9.6v9.6h-9.6zM230.4 -16h9.6v6.4h-9.6zM169.6 -12.8h9.6v12.8h-9.6zM9.6 -9.6h32v9.6h-32zM57.6 -9.6h16v9.6h-16zM156.8 -9.6h12.8v9.6h-12.8zM204.8 -9.6h32v9.6h-32zM281.6 -9.6h16v9.6h-16zM320 -9.6h16v9.6h-16z" fill="#0D0E11"/><path transform="translate(134.392 292)" d="M6.144 0.0H1.92V-16.8H3.96V-11.52Q4.68 -12.0 5.76 -12.0H6.144Q8.256 -12.0 9.24 -11.100000000000001Q10.224 -10.200000000000001 10.224 -8.16V-3.84Q10.224 -1.824 9.228 -0.912Q8.232 0.0 6.144 0.0ZM3.96 -8.88V-1.8H6.384Q7.272 -1.8 7.728000000000001 -2.208Q8.184000000000001 -2.616 8.184000000000001 -3.36V-8.64Q8.184000000000001 -9.384 7.728000000000001 -9.792000000000002Q7.272 -10.200000000000001 6.384 -10.200000000000001H5.5200000000000005Q4.728 -10.200000000000001 4.343999999999999 -9.780000000000001Q3.96 -9.36 3.96 -8.88ZM16.72 4.2Q16.216 4.2 15.352 4.056V2.3040000000000003Q16.024 2.4 16.6 2.4Q17.272 2.4 17.56 1.32L17.944 0.0H17.464L13.744 -12.0H15.952L18.736 -2.088L21.088 -12.0H23.176000000000002L19.695999999999998 1.056Q19.408 2.136 19.096 2.7960000000000003Q18.784 3.456 18.22 3.8280000000000003Q17.656 4.2 16.72 4.2ZM38.856 0.0H34.296V-16.8H38.568Q40.704 -16.8 41.7 -15.936Q42.696 -15.072000000000001 42.696 -13.056000000000001V-11.688Q42.696 -9.84 41.376000000000005 -8.904Q42.936 -8.040000000000001 42.936 -5.952V-3.7920000000000003Q42.936 -1.728 41.988 -0.864Q41.04 0.0 38.856 0.0ZM38.856 -15.0H36.384V-9.696H38.856Q39.6 -9.696 40.104 -10.176Q40.608000000000004 -10.656 40.608000000000004 -11.448V-13.272Q40.608000000000004 -14.184000000000001 40.188 -14.592Q39.768 -15.0 38.856 -15.0ZM39.096000000000004 -7.896H36.384V-1.8H39.072Q39.984 -1.8 40.416 -2.22Q40.848 -2.64 40.848 -3.552V-6.168Q40.848 -6.96 40.367999999999995 -7.428Q39.888 -7.896 39.096000000000004 -7.896ZM46.816 0.0V-1.752H48.496V-15.048H46.816V-16.8H52.264V-15.048H50.584V-1.752H52.264V0.0ZM65.43200000000002 0.0V-15.072000000000001L62.864000000000004 -5.64H60.87200000000001L58.30400000000001 -15.072000000000001V0.0H56.38400000000001V-16.8H59.76800000000001L61.95200000000001 -8.208L64.11200000000001 -16.8H67.424V0.0ZM72.26400000000001 -4.08V-12.72Q72.26400000000001 -14.76 73.38000000000001 -15.780000000000001Q74.49600000000001 -16.8 76.58400000000002 -16.8H79.51200000000001V-14.976H76.34400000000001Q75.45600000000002 -14.976 74.90400000000002 -14.448Q74.35200000000002 -13.92 74.35200000000002 -13.176V-3.624Q74.35200000000002 -2.88 74.90400000000002 -2.352Q75.45600000000002 -1.824 76.34400000000001 -1.824H79.51200000000001V0.0H76.58400000000002Q74.49600000000001 0.0 73.38000000000001 -1.02Q72.26400000000001 -2.04 72.26400000000001 -4.08ZM89.15200000000002 -0.72Q88.60000000000001 0.0 87.688 0.0H86.03200000000001Q84.20800000000001 0.0 83.38000000000001 -0.732Q82.552 -1.464 82.552 -3.24V-3.72Q82.552 -7.44 86.05600000000001 -7.44H88.552V-8.64Q88.552 -9.384 88.096 -9.792000000000002Q87.64000000000001 -10.200000000000001 86.75200000000001 -10.200000000000001H83.51200000000001V-12.0H86.51200000000001Q88.60000000000001 -12.0 89.596 -11.088000000000001Q90.59200000000001 -10.176 90.59200000000001 -8.16V-2.4Q90.59200000000001 -2.04 90.86800000000001 -1.8599999999999999Q91.144 -1.68 91.792 -1.68V0.0H90.47200000000001Q90.16000000000001 0.0 89.78800000000001 -0.192Q89.41600000000001 -0.384 89.15200000000002 -0.72ZM88.552 -3.0V-5.64H86.03200000000001Q85.40800000000002 -5.64 85.00000000000001 -5.231999999999999Q84.59200000000001 -4.824 84.59200000000001 -4.2V-3.0Q84.59200000000001 -2.376 84.88000000000001 -2.088Q85.168 -1.8 85.792 -1.8H87.44800000000001Q88.168 -1.8 88.36000000000001 -2.136Q88.552 -2.472 88.552 -3.0ZM95.67200000000001 -12.0H97.59200000000001V-11.424Q98.33600000000001 -12.0 99.51200000000001 -12.0H99.656Q101.84 -12.0 102.77600000000001 -10.896Q103.66400000000002 -12.0 105.248 -12.0H105.39200000000001Q107.33600000000001 -12.0 108.28400000000002 -11.088000000000001Q109.23200000000001 -10.176 109.23200000000001 -8.16V0.0H107.19200000000001V-8.64Q107.19200000000001 -9.36 106.772 -9.780000000000001Q106.352 -10.200000000000001 105.632 -10.200000000000001H105.00800000000001Q104.26400000000001 -10.200000000000001 103.89200000000001 -9.756Q103.52000000000001 -9.312 103.47200000000001 -8.808V0.0H101.43200000000002V-8.64Q101.43200000000002 -9.36 101.02400000000002 -9.780000000000001Q100.61600000000001 -10.200000000000001 99.89600000000002 -10.200000000000001H99.272Q98.504 -10.200000000000001 98.108 -9.804Q97.712 -9.408 97.712 -8.952V0.0H95.67200000000001ZM113.71200000000002 -3.84V-8.16Q113.71200000000002 -10.224 114.60000000000002 -11.112Q115.48800000000001 -12.0 117.552 -12.0H118.20000000000002Q119.90400000000001 -12.0 120.78 -11.052Q121.656 -10.104000000000001 121.656 -8.28V-5.16H115.75200000000001V-3.36Q115.75200000000001 -2.616 116.20800000000001 -2.208Q116.66400000000002 -1.8 117.552 -1.8H120.888V0.0H117.79200000000002Q115.68 0.0 114.69600000000001 -0.9Q113.71200000000002 -1.8 113.71200000000002 -3.84ZM119.66400000000002 -6.96V-8.76Q119.66400000000002 -9.384 119.25600000000001 -9.792000000000002Q118.84800000000001 -10.200000000000001 118.22400000000002 -10.200000000000001H117.31200000000001Q116.44800000000001 -10.200000000000001 116.10000000000001 -9.804Q115.75200000000001 -9.408 115.75200000000001 -8.64V-6.96ZM126.016 -2.4V-16.8H128.056V-2.52Q128.056 -2.136 128.248 -1.968Q128.44 -1.8 128.89600000000002 -1.8H129.376V0.0H128.056Q127.24000000000001 0.0 126.62800000000001 -0.5760000000000001Q126.016 -1.1520000000000001 126.016 -2.4Z" fill="#4B525C"/></svg>