<svg xmlns="http://www.w3.org/2000/svg" viewBox="0 0 100 100" width="100" height="100"><defs><linearGradient id="cgp" gradientUnits="userSpaceOnUse" x1="0" y1="0" x2="100" y2="100"><stop offset="0" stop-color="#22356B"/><stop offset="1" stop-color="#0A0C12"/></linearGradient><clipPath id="c"><rect width="100" height="100"/></clipPath></defs><rect width="100" height="100" fill="url(#cgp)"/><g clip-path="url(#c)"><g><path d="M-6 40 h16 a6 6 0 0 1 6 6 v8.0 a6.0 6.0 0 0 0 0 12.0 v8.0 a6 6 0 0 1 -6 6 h-16 z" fill="#FFFFFF"/><path d="M106 20 h-16 a6 6 0 0 0 -6 6 v8.0 a6.0 6.0 0 0 1 0 12.0 v8.0 a6 6 0 0 0 6 6 h16 z" fill="#FFFFFF"/><path d="M25.5 60 C25.5 14 56 12 58 40 C60 54 70 40 74.5 40" fill="none" stroke="#2E9BFF" stroke-width="9" stroke-linecap="round"/><circle cx="16.0" cy="60.0" r="9.5" fill="none" stroke="#2E9BFF" stroke-width="7.0"/><circle cx="84.0" cy="40.0" r="9.5" fill="none" stroke="#2E9BFF" stroke-width="7.0"/></g></g></svg>